<svg width="299" height="46" viewBox="0 0 299 46" fill="none" xmlns="http://www.w3.org/2000/svg">
<path d="M12.3493 1.73696C15.1178 0.59022 18.085 0 21.0816 0C24.0782 0 27.0454 0.590219 29.8139 1.73696C32.5824 2.8837 35.0979 4.5645 37.2168 6.6834C39.3357 8.8023 41.0165 11.3178 42.1632 14.0863L34.9059 17.0924C34.1539 15.2769 33.0517 13.6274 31.6622 12.2379C30.2728 10.8485 28.6232 9.74629 26.8078 8.99431C24.9924 8.24234 23.0466 7.8553 21.0816 7.8553C19.1166 7.8553 17.1708 8.24234 15.3554 8.99431C13.54 9.74629 11.8904 10.8485 10.501 12.2379C9.11151 13.6274 8.00933 15.2769 7.25735 17.0924L0 14.0863C1.14674 11.3178 2.82754 8.8023 4.94644 6.6834C7.06534 4.5645 9.58084 2.8837 12.3493 1.73696Z" fill="#2F2F2F"/>
<path fill-rule="evenodd" clip-rule="evenodd" d="M23.0648 15.4171C18.9771 14.3218 14.7754 16.7476 13.6801 20.8353C12.5848 24.9231 15.0107 29.1247 19.0984 30.22C23.1861 31.3153 27.3878 28.8895 28.4831 24.8018C29.5784 20.7141 27.1526 16.5124 23.0648 15.4171ZM22.0483 19.2109C20.0558 18.677 18.0078 19.8594 17.474 21.8519C16.9401 23.8443 18.1225 25.8923 20.1149 26.4262C22.1074 26.9601 24.1554 25.7777 24.6893 23.7852C25.2231 21.7928 24.0407 19.7448 22.0483 19.2109Z" fill="#2F2F2F"/>
<path d="M34.9059 28.5448C34.1539 30.3602 33.0517 32.0097 31.6622 33.3992C30.2728 34.7887 28.6232 35.8908 26.8078 36.6428C24.9924 37.3948 23.0466 37.7818 21.0816 37.7818C19.1166 37.7818 17.1708 37.3948 15.3554 36.6428C13.54 35.8908 11.8904 34.7887 10.501 33.3992C9.11151 32.0097 8.00933 30.3602 7.25735 28.5448L0 31.5509C1.14674 34.3193 2.82754 36.8348 4.94644 38.9537C7.06534 41.0726 9.58084 42.7534 12.3493 43.9002C15.1178 45.0469 18.085 45.6371 21.0816 45.6371C24.0782 45.6371 27.0454 45.0469 29.8139 43.9002C32.5824 42.7534 35.0979 41.0726 37.2168 38.9537C39.3357 36.8348 41.0165 34.3193 42.1632 31.5509L34.9059 28.5448Z" fill="#2F2F2F"/>
<path d="M62.8351 19.2986C62.5311 18.7386 62.0911 18.3146 61.5151 18.0266C60.9551 17.7226 60.2911 17.5706 59.5231 17.5706C58.1951 17.5706 57.1311 18.0106 56.3311 18.8906C55.5311 19.7546 55.1311 20.9146 55.1311 22.3706C55.1311 23.9226 55.5471 25.1386 56.3791 26.0186C57.2271 26.8826 58.3871 27.3146 59.8591 27.3146C60.8671 27.3146 61.7151 27.0586 62.4031 26.5466C63.1071 26.0346 63.6191 25.2986 63.9391 24.3386H58.7311V21.3146H67.6591V25.1306C67.3551 26.1546 66.8351 27.1066 66.0991 27.9866C65.3791 28.8666 64.4591 29.5786 63.3391 30.1226C62.2191 30.6666 60.9551 30.9386 59.5471 30.9386C57.8831 30.9386 56.3951 30.5786 55.0831 29.8586C53.7871 29.1226 52.7711 28.1066 52.0351 26.8106C51.3151 25.5146 50.9551 24.0346 50.9551 22.3706C50.9551 20.7066 51.3151 19.2266 52.0351 17.9306C52.7711 16.6186 53.7871 15.6026 55.0831 14.8826C56.3791 14.1466 57.8591 13.7786 59.5231 13.7786C61.5391 13.7786 63.2351 14.2666 64.6111 15.2426C66.0031 16.2186 66.9231 17.5706 67.3711 19.2986H62.8351ZM75.2363 17.2586V20.6666H80.7323V23.8346H75.2363V27.5306H81.4523V30.8186H71.1323V13.9706H81.4523V17.2586H75.2363ZM93.9087 30.8186L90.4047 24.4586H89.4207V30.8186H85.3167V13.9706H92.2047C93.5327 13.9706 94.6607 14.2026 95.5887 14.6666C96.5327 15.1306 97.2367 15.7706 97.7007 16.5866C98.1647 17.3866 98.3967 18.2826 98.3967 19.2746C98.3967 20.3946 98.0767 21.3946 97.4367 22.2746C96.8127 23.1546 95.8847 23.7786 94.6527 24.1466L98.5407 30.8186H93.9087ZM89.4207 21.5546H91.9647C92.7167 21.5546 93.2767 21.3706 93.6447 21.0026C94.0287 20.6346 94.2207 20.1146 94.2207 19.4426C94.2207 18.8026 94.0287 18.2986 93.6447 17.9306C93.2767 17.5626 92.7167 17.3786 91.9647 17.3786H89.4207V21.5546ZM121.253 13.9706V30.8186H117.149V20.7146L113.381 30.8186H110.069L106.277 20.6906V30.8186H102.173V13.9706H107.021L111.749 25.6346L116.429 13.9706H121.253ZM135.892 27.8426H129.604L128.596 30.8186H124.3L130.396 13.9706H135.148L141.244 30.8186H136.9L135.892 27.8426ZM134.836 24.6746L132.748 18.5066L130.684 24.6746H134.836ZM159.372 30.8186H155.268L148.404 20.4266V30.8186H144.3V13.9706H148.404L155.268 24.4106V13.9706H159.372V30.8186ZM180.32 27.8426H174.032L173.024 30.8186H168.728L174.824 13.9706H179.576L185.672 30.8186H181.328L180.32 27.8426ZM179.264 24.6746L177.176 18.5066L175.112 24.6746H179.264ZM192.76 13.9706V24.0506C192.76 25.0586 193.008 25.8346 193.504 26.3786C194 26.9226 194.728 27.1946 195.688 27.1946C196.648 27.1946 197.384 26.9226 197.896 26.3786C198.408 25.8346 198.664 25.0586 198.664 24.0506V13.9706H202.768V24.0266C202.768 25.5306 202.448 26.8026 201.808 27.8426C201.168 28.8826 200.304 29.6666 199.216 30.1946C198.144 30.7226 196.944 30.9866 195.616 30.9866C194.288 30.9866 193.096 30.7306 192.04 30.2186C191 29.6906 190.176 28.9066 189.568 27.8666C188.96 26.8106 188.656 25.5306 188.656 24.0266V13.9706H192.76ZM218.97 13.9706V17.2586H214.506V30.8186H210.402V17.2586H205.938V13.9706H218.97ZM230.197 30.9866C228.613 30.9866 227.157 30.6186 225.829 29.8826C224.517 29.1466 223.469 28.1226 222.685 26.8106C221.917 25.4826 221.533 23.9946 221.533 22.3466C221.533 20.6986 221.917 19.2186 222.685 17.9066C223.469 16.5946 224.517 15.5706 225.829 14.8346C227.157 14.0986 228.613 13.7306 230.197 13.7306C231.781 13.7306 233.229 14.0986 234.541 14.8346C235.869 15.5706 236.909 16.5946 237.661 17.9066C238.429 19.2186 238.813 20.6986 238.813 22.3466C238.813 23.9946 238.429 25.4826 237.661 26.8106C236.893 28.1226 235.853 29.1466 234.541 29.8826C233.229 30.6186 231.781 30.9866 230.197 30.9866ZM230.197 27.2426C231.541 27.2426 232.613 26.7946 233.413 25.8986C234.229 25.0026 234.637 23.8186 234.637 22.3466C234.637 20.8586 234.229 19.6746 233.413 18.7946C232.613 17.8986 231.541 17.4506 230.197 17.4506C228.837 17.4506 227.749 17.8906 226.933 18.7706C226.133 19.6506 225.733 20.8426 225.733 22.3466C225.733 23.8346 226.133 25.0266 226.933 25.9226C227.749 26.8026 228.837 27.2426 230.197 27.2426ZM248.608 13.9706C250.384 13.9706 251.936 14.3226 253.264 15.0266C254.592 15.7306 255.616 16.7226 256.336 18.0026C257.072 19.2666 257.44 20.7306 257.44 22.3946C257.44 24.0426 257.072 25.5066 256.336 26.7866C255.616 28.0666 254.584 29.0586 253.24 29.7626C251.912 30.4666 250.368 30.8186 248.608 30.8186H242.296V13.9706H248.608ZM248.344 27.2666C249.896 27.2666 251.104 26.8426 251.968 25.9946C252.832 25.1466 253.264 23.9466 253.264 22.3946C253.264 20.8426 252.832 19.6346 251.968 18.7706C251.104 17.9066 249.896 17.4746 248.344 17.4746H246.4V27.2666H248.344ZM268.902 30.9866C267.318 30.9866 265.862 30.6186 264.534 29.8826C263.222 29.1466 262.174 28.1226 261.39 26.8106C260.622 25.4826 260.238 23.9946 260.238 22.3466C260.238 20.6986 260.622 19.2186 261.39 17.9066C262.174 16.5946 263.222 15.5706 264.534 14.8346C265.862 14.0986 267.318 13.7306 268.902 13.7306C270.486 13.7306 271.934 14.0986 273.246 14.8346C274.574 15.5706 275.614 16.5946 276.366 17.9066C277.134 19.2186 277.518 20.6986 277.518 22.3466C277.518 23.9946 277.134 25.4826 276.366 26.8106C275.598 28.1226 274.558 29.1466 273.246 29.8826C271.934 30.6186 270.486 30.9866 268.902 30.9866ZM268.902 27.2426C270.246 27.2426 271.318 26.7946 272.118 25.8986C272.934 25.0026 273.342 23.8186 273.342 22.3466C273.342 20.8586 272.934 19.6746 272.118 18.7946C271.318 17.8986 270.246 17.4506 268.902 17.4506C267.542 17.4506 266.454 17.8906 265.638 18.7706C264.838 19.6506 264.438 20.8426 264.438 22.3466C264.438 23.8346 264.838 25.0266 265.638 25.9226C266.454 26.8026 267.542 27.2426 268.902 27.2426ZM280.305 22.3706C280.305 20.7066 280.665 19.2266 281.385 17.9306C282.105 16.6186 283.105 15.6026 284.385 14.8826C285.681 14.1466 287.145 13.7786 288.777 13.7786C290.777 13.7786 292.489 14.3066 293.913 15.3626C295.337 16.4186 296.289 17.8586 296.769 19.6826H292.257C291.921 18.9786 291.441 18.4426 290.817 18.0746C290.209 17.7066 289.513 17.5226 288.729 17.5226C287.465 17.5226 286.441 17.9626 285.657 18.8426C284.873 19.7226 284.481 20.8986 284.481 22.3706C284.481 23.8426 284.873 25.0186 285.657 25.8986C286.441 26.7786 287.465 27.2186 288.729 27.2186C289.513 27.2186 290.209 27.0346 290.817 26.6666C291.441 26.2986 291.921 25.7626 292.257 25.0586H296.769C296.289 26.8826 295.337 28.3226 293.913 29.3786C292.489 30.4186 290.777 30.9386 288.777 30.9386C287.145 30.9386 285.681 30.5786 284.385 29.8586C283.105 29.1226 282.105 28.1066 281.385 26.8106C280.665 25.5146 280.305 24.0346 280.305 22.3706Z" fill="#2F2F2F"/>
</svg>
