<svg width="1901" height="487" viewBox="0 0 1901 487" fill="none" xmlns="http://www.w3.org/2000/svg">
<path d="M131.95 19.2373C161.4 7.03842 192.965 0.759766 224.842 0.759766C256.72 0.759766 288.284 7.03842 317.735 19.2372C347.186 31.4361 373.945 49.3162 396.486 71.8567C419.026 94.3972 436.906 121.157 449.105 150.607L371.902 182.586C363.903 163.273 352.178 145.726 337.397 130.945C322.616 116.164 305.069 104.439 285.757 96.4398C266.445 88.4404 245.746 84.3232 224.842 84.3232C203.939 84.3232 183.24 88.4404 163.928 96.4398C144.616 104.439 127.068 116.164 112.288 130.945C97.5066 145.726 85.7817 163.273 77.7824 182.586L0.579834 150.607C12.7787 121.157 30.6588 94.3972 53.1993 71.8567C75.7398 49.3162 102.499 31.4361 131.95 19.2373Z" fill="#2F2F2F"/>
<path fill-rule="evenodd" clip-rule="evenodd" d="M245.94 164.764C202.455 153.113 157.759 178.918 146.107 222.403C134.455 265.887 160.261 310.584 203.745 322.235C247.23 333.887 291.927 308.081 303.578 264.597C315.23 221.113 289.424 176.416 245.94 164.764ZM235.126 205.122C213.93 199.443 192.144 212.021 186.465 233.217C180.786 254.412 193.364 276.198 214.559 281.877C235.755 287.557 257.541 274.978 263.22 253.783C268.899 232.588 256.321 210.802 235.126 205.122Z" fill="#2F2F2F"/>
<path d="M371.902 304.414C363.903 323.726 352.178 341.274 337.397 356.055C322.616 370.836 305.069 382.561 285.757 390.56C266.445 398.559 245.746 402.677 224.842 402.677C203.939 402.677 183.24 398.559 163.928 390.56C144.616 382.561 127.068 370.836 112.288 356.055C97.5066 341.274 85.7817 323.726 77.7824 304.414L0.579834 336.392C12.7787 365.843 30.6588 392.603 53.1993 415.143C75.7398 437.684 102.499 455.564 131.95 467.762C161.4 479.961 192.965 486.24 224.842 486.24C256.72 486.24 288.284 479.961 317.735 467.762C347.186 455.564 373.945 437.684 396.486 415.143C419.026 392.603 436.906 365.843 449.105 336.393L371.902 304.414Z" fill="#2F2F2F"/>
<path d="M661.606 296.944H594.716L583.993 328.603H538.293L603.141 149.376H653.692L718.54 328.603H672.329L661.606 296.944ZM650.373 263.244L628.161 197.63L606.205 263.244H650.373Z" fill="#2F2F2F"/>
<path d="M793.934 149.376V256.606C793.934 267.329 796.572 275.584 801.848 281.371C807.125 287.158 814.869 290.051 825.081 290.051C835.293 290.051 843.123 287.158 848.57 281.371C854.016 275.584 856.739 267.329 856.739 256.606V149.376H900.397V256.35C900.397 272.35 896.993 285.881 890.185 296.944C883.377 308.008 874.185 316.348 862.612 321.965C851.208 327.581 838.442 330.39 824.315 330.39C810.188 330.39 797.508 327.666 786.274 322.22C775.211 316.603 766.446 308.263 759.978 297.2C753.51 285.966 750.276 272.35 750.276 256.35V149.376H793.934Z" fill="#2F2F2F"/>
<path d="M1072.75 149.376V184.354H1025.26V328.603H981.605V184.354H934.118V149.376H1072.75Z" fill="#2F2F2F"/>
<path d="M1192.19 330.39C1175.34 330.39 1159.85 326.475 1145.72 318.646C1131.77 310.816 1120.62 299.923 1112.28 285.966C1104.11 271.839 1100.02 256.01 1100.02 238.479C1100.02 220.948 1104.11 205.204 1112.28 191.247C1120.62 177.29 1131.77 166.397 1145.72 158.567C1159.85 150.738 1175.34 146.823 1192.19 146.823C1209.04 146.823 1224.44 150.738 1238.4 158.567C1252.53 166.397 1263.59 177.29 1271.59 191.247C1279.76 205.204 1283.84 220.948 1283.84 238.479C1283.84 256.01 1279.76 271.839 1271.59 285.966C1263.42 299.923 1252.36 310.816 1238.4 318.646C1224.44 326.475 1209.04 330.39 1192.19 330.39ZM1192.19 290.562C1206.49 290.562 1217.89 285.796 1226.4 276.264C1235.08 266.733 1239.42 254.138 1239.42 238.479C1239.42 222.65 1235.08 210.055 1226.4 200.693C1217.89 191.162 1206.49 186.396 1192.19 186.396C1177.72 186.396 1166.15 191.077 1157.47 200.438C1148.96 209.799 1144.7 222.48 1144.7 238.479C1144.7 254.308 1148.96 266.988 1157.47 276.52C1166.15 285.881 1177.72 290.562 1192.19 290.562Z" fill="#2F2F2F"/>
<path d="M1388.04 149.376C1406.94 149.376 1423.45 153.121 1437.57 160.61C1451.7 168.099 1462.59 178.652 1470.25 192.268C1478.08 205.714 1482 221.288 1482 238.989C1482 256.521 1478.08 272.094 1470.25 285.711C1462.59 299.327 1451.62 309.88 1437.32 317.369C1423.19 324.858 1406.77 328.603 1388.04 328.603H1320.9V149.376H1388.04ZM1385.23 290.817C1401.74 290.817 1414.6 286.306 1423.79 277.286C1432.98 268.265 1437.57 255.499 1437.57 238.989C1437.57 222.48 1432.98 209.629 1423.79 200.438C1414.6 191.247 1401.74 186.651 1385.23 186.651H1364.55V290.817H1385.23Z" fill="#2F2F2F"/>
<path d="M1603.92 330.39C1587.07 330.39 1571.58 326.475 1557.46 318.646C1543.5 310.816 1532.35 299.923 1524.01 285.966C1515.84 271.839 1511.76 256.01 1511.76 238.479C1511.76 220.948 1515.84 205.204 1524.01 191.247C1532.35 177.29 1543.5 166.397 1557.46 158.567C1571.58 150.738 1587.07 146.823 1603.92 146.823C1620.77 146.823 1636.18 150.738 1650.13 158.567C1664.26 166.397 1675.32 177.29 1683.32 191.247C1691.49 205.204 1695.58 220.948 1695.58 238.479C1695.58 256.01 1691.49 271.839 1683.32 285.966C1675.15 299.923 1664.09 310.816 1650.13 318.646C1636.18 326.475 1620.77 330.39 1603.92 330.39ZM1603.92 290.562C1618.22 290.562 1629.62 285.796 1638.13 276.264C1646.81 266.733 1651.15 254.138 1651.15 238.479C1651.15 222.65 1646.81 210.055 1638.13 200.693C1629.62 191.162 1618.22 186.396 1603.92 186.396C1589.45 186.396 1577.88 191.077 1569.2 200.438C1560.69 209.799 1556.43 222.48 1556.43 238.479C1556.43 254.308 1560.69 266.988 1569.2 276.52C1577.88 285.881 1589.45 290.562 1603.92 290.562Z" fill="#2F2F2F"/>
<path d="M1725.23 238.734C1725.23 221.033 1729.06 205.289 1736.72 191.502C1744.38 177.545 1755.01 166.737 1768.63 159.078C1782.42 151.249 1797.99 147.334 1815.35 147.334C1836.63 147.334 1854.84 152.951 1869.99 164.184C1885.14 175.418 1895.26 190.736 1900.37 210.14H1852.37C1848.8 202.651 1843.69 196.949 1837.05 193.034C1830.58 189.119 1823.18 187.162 1814.84 187.162C1801.39 187.162 1790.5 191.843 1782.16 201.204C1773.82 210.565 1769.65 223.075 1769.65 238.734C1769.65 254.393 1773.82 266.903 1782.16 276.264C1790.5 285.626 1801.39 290.306 1814.84 290.306C1823.18 290.306 1830.58 288.349 1837.05 284.434C1843.69 280.52 1848.8 274.818 1852.37 267.329H1900.37C1895.26 286.732 1885.14 302.051 1869.99 313.284C1854.84 324.347 1836.63 329.879 1815.35 329.879C1797.99 329.879 1782.42 326.049 1768.63 318.39C1755.01 310.561 1744.38 299.753 1736.72 285.966C1729.06 272.179 1725.23 256.435 1725.23 238.734Z" fill="#2F2F2F"/>
</svg>
