<svg width="181" height="46" viewBox="0 0 181 46" fill="none" xmlns="http://www.w3.org/2000/svg">
<path d="M12.9245 1.75088C15.693 0.604136 18.6602 0.013916 21.6568 0.013916C24.6534 0.013916 27.6206 0.604135 30.3891 1.75088C33.1576 2.89762 35.6731 4.57842 37.792 6.69732C39.9109 8.81622 41.5917 11.3317 42.7384 14.1002L35.481 17.1063C34.7291 15.2909 33.6269 13.6413 32.2374 12.2519C30.848 10.8624 29.1984 9.7602 27.383 9.00823C25.5676 8.25625 23.6218 7.86922 21.6568 7.86922C19.6918 7.86922 17.746 8.25625 15.9306 9.00823C14.1152 9.7602 12.4656 10.8624 11.0762 12.2519C9.68671 13.6413 8.58452 15.2909 7.83255 17.1063L0.575195 14.1002C1.72194 11.3317 3.40274 8.81622 5.52164 6.69732C7.64054 4.57842 10.156 2.89762 12.9245 1.75088Z" fill="#2F2F2F"/>
<path fill-rule="evenodd" clip-rule="evenodd" d="M23.64 15.431C19.5523 14.3357 15.3506 16.7615 14.2553 20.8493C13.16 24.937 15.5859 29.1386 19.6736 30.2339C23.7613 31.3293 27.963 28.9034 29.0583 24.8157C30.1536 20.728 27.7277 16.5263 23.64 15.431ZM22.6235 19.2248C20.631 18.691 18.583 19.8734 18.0492 21.8658C17.5153 23.8583 18.6977 25.9063 20.6901 26.4401C22.6826 26.974 24.7306 25.7916 25.2645 23.7991C25.7983 21.8067 24.6159 19.7587 22.6235 19.2248Z" fill="#2F2F2F"/>
<path d="M35.481 28.5587C34.7291 30.3741 33.6269 32.0236 32.2374 33.4131C30.848 34.8026 29.1984 35.9048 27.383 36.6567C25.5676 37.4087 23.6218 37.7957 21.6568 37.7957C19.6918 37.7957 17.746 37.4087 15.9306 36.6567C14.1152 35.9048 12.4656 34.8026 11.0762 33.4131C9.68671 32.0236 8.58452 30.3741 7.83255 28.5587L0.575195 31.5648C1.72194 34.3332 3.40274 36.8487 5.52164 38.9676C7.64054 41.0865 10.156 42.7673 12.9245 43.9141C15.693 45.0608 18.6602 45.651 21.6568 45.651C24.6534 45.651 27.6206 45.0608 30.3891 43.9141C33.1576 42.7673 35.6731 41.0865 37.792 38.9676C39.9109 36.8487 41.5917 34.3332 42.7384 31.5648L35.481 28.5587Z" fill="#2F2F2F"/>
<path d="M62.7143 27.8565H56.4263L55.4183 30.8325H51.1223L57.2183 13.9845H61.9703L68.0663 30.8325H63.7223L62.7143 27.8565ZM61.6583 24.6885L59.5703 18.5205L57.5063 24.6885H61.6583ZM75.1536 13.9845V24.0645C75.1536 25.0725 75.4016 25.8485 75.8976 26.3925C76.3936 26.9365 77.1216 27.2085 78.0816 27.2085C79.0416 27.2085 79.7776 26.9365 80.2896 26.3925C80.8016 25.8485 81.0576 25.0725 81.0576 24.0645V13.9845H85.1616V24.0405C85.1616 25.5445 84.8416 26.8165 84.2016 27.8565C83.5616 28.8965 82.6976 29.6805 81.6096 30.2085C80.5376 30.7365 79.3376 31.0005 78.0096 31.0005C76.6816 31.0005 75.4896 30.7445 74.4336 30.2325C73.3936 29.7045 72.5696 28.9205 71.9616 27.8805C71.3536 26.8245 71.0496 25.5445 71.0496 24.0405V13.9845H75.1536ZM101.363 13.9845V17.2725H96.8995V30.8325H92.7955V17.2725H88.3315V13.9845H101.363ZM112.591 31.0005C111.007 31.0005 109.551 30.6325 108.223 29.8965C106.911 29.1605 105.863 28.1365 105.079 26.8245C104.311 25.4965 103.927 24.0085 103.927 22.3605C103.927 20.7125 104.311 19.2325 105.079 17.9205C105.863 16.6085 106.911 15.5845 108.223 14.8485C109.551 14.1125 111.007 13.7445 112.591 13.7445C114.175 13.7445 115.623 14.1125 116.935 14.8485C118.263 15.5845 119.303 16.6085 120.055 17.9205C120.823 19.2325 121.207 20.7125 121.207 22.3605C121.207 24.0085 120.823 25.4965 120.055 26.8245C119.287 28.1365 118.247 29.1605 116.935 29.8965C115.623 30.6325 114.175 31.0005 112.591 31.0005ZM112.591 27.2565C113.935 27.2565 115.007 26.8085 115.807 25.9125C116.623 25.0165 117.031 23.8325 117.031 22.3605C117.031 20.8725 116.623 19.6885 115.807 18.8085C115.007 17.9125 113.935 17.4645 112.591 17.4645C111.231 17.4645 110.143 17.9045 109.327 18.7845C108.527 19.6645 108.127 20.8565 108.127 22.3605C108.127 23.8485 108.527 25.0405 109.327 25.9365C110.143 26.8165 111.231 27.2565 112.591 27.2565ZM131.002 13.9845C132.778 13.9845 134.33 14.3365 135.658 15.0405C136.986 15.7445 138.01 16.7365 138.73 18.0165C139.466 19.2805 139.834 20.7445 139.834 22.4085C139.834 24.0565 139.466 25.5205 138.73 26.8005C138.01 28.0805 136.978 29.0725 135.634 29.7765C134.306 30.4805 132.762 30.8325 131.002 30.8325H124.69V13.9845H131.002ZM130.738 27.2805C132.29 27.2805 133.498 26.8565 134.362 26.0085C135.226 25.1605 135.658 23.9605 135.658 22.4085C135.658 20.8565 135.226 19.6485 134.362 18.7845C133.498 17.9205 132.29 17.4885 130.738 17.4885H128.794V27.2805H130.738ZM151.296 31.0005C149.712 31.0005 148.256 30.6325 146.928 29.8965C145.616 29.1605 144.568 28.1365 143.784 26.8245C143.016 25.4965 142.632 24.0085 142.632 22.3605C142.632 20.7125 143.016 19.2325 143.784 17.9205C144.568 16.6085 145.616 15.5845 146.928 14.8485C148.256 14.1125 149.712 13.7445 151.296 13.7445C152.88 13.7445 154.328 14.1125 155.64 14.8485C156.968 15.5845 158.008 16.6085 158.76 17.9205C159.528 19.2325 159.912 20.7125 159.912 22.3605C159.912 24.0085 159.528 25.4965 158.76 26.8245C157.992 28.1365 156.952 29.1605 155.64 29.8965C154.328 30.6325 152.88 31.0005 151.296 31.0005ZM151.296 27.2565C152.64 27.2565 153.712 26.8085 154.512 25.9125C155.328 25.0165 155.736 23.8325 155.736 22.3605C155.736 20.8725 155.328 19.6885 154.512 18.8085C153.712 17.9125 152.64 17.4645 151.296 17.4645C149.936 17.4645 148.848 17.9045 148.032 18.7845C147.232 19.6645 146.832 20.8565 146.832 22.3605C146.832 23.8485 147.232 25.0405 148.032 25.9365C148.848 26.8165 149.936 27.2565 151.296 27.2565ZM162.699 22.3845C162.699 20.7205 163.059 19.2405 163.779 17.9445C164.499 16.6325 165.499 15.6165 166.779 14.8965C168.075 14.1605 169.539 13.7925 171.171 13.7925C173.171 13.7925 174.883 14.3205 176.307 15.3765C177.731 16.4325 178.683 17.8725 179.163 19.6965H174.651C174.315 18.9925 173.835 18.4565 173.211 18.0885C172.603 17.7205 171.907 17.5365 171.123 17.5365C169.859 17.5365 168.835 17.9765 168.051 18.8565C167.267 19.7365 166.875 20.9125 166.875 22.3845C166.875 23.8565 167.267 25.0325 168.051 25.9125C168.835 26.7925 169.859 27.2325 171.123 27.2325C171.907 27.2325 172.603 27.0485 173.211 26.6805C173.835 26.3125 174.315 25.7765 174.651 25.0725H179.163C178.683 26.8965 177.731 28.3365 176.307 29.3925C174.883 30.4325 173.171 30.9525 171.171 30.9525C169.539 30.9525 168.075 30.5925 166.779 29.8725C165.499 29.1365 164.499 28.1205 163.779 26.8245C163.059 25.5285 162.699 24.0485 162.699 22.3845Z" fill="#2F2F2F"/>
</svg>
