<svg width="43" height="46" viewBox="0 0 43 46" fill="none" xmlns="http://www.w3.org/2000/svg">
<path d="M12.9245 1.73696C15.693 0.59022 18.6602 0 21.6568 0C24.6534 0 27.6206 0.590219 30.3891 1.73696C33.1576 2.8837 35.6731 4.5645 37.792 6.6834C39.9109 8.8023 41.5917 11.3178 42.7384 14.0863L35.481 17.0924C34.7291 15.2769 33.6269 13.6274 32.2374 12.2379C30.848 10.8485 29.1984 9.74629 27.383 8.99431C25.5676 8.24234 23.6218 7.8553 21.6568 7.8553C19.6918 7.8553 17.746 8.24234 15.9306 8.99431C14.1152 9.74629 12.4656 10.8485 11.0762 12.2379C9.68671 13.6274 8.58452 15.2769 7.83255 17.0924L0.575195 14.0863C1.72194 11.3178 3.40274 8.8023 5.52164 6.6834C7.64054 4.5645 10.156 2.8837 12.9245 1.73696Z" fill="#030616"/>
<path fill-rule="evenodd" clip-rule="evenodd" d="M23.64 15.4171C19.5523 14.3218 15.3506 16.7476 14.2553 20.8353C13.16 24.9231 15.5859 29.1247 19.6736 30.22C23.7613 31.3153 27.963 28.8895 29.0583 24.8018C30.1536 20.7141 27.7277 16.5124 23.64 15.4171ZM22.6235 19.2109C20.631 18.677 18.583 19.8594 18.0492 21.8519C17.5153 23.8443 18.6977 25.8923 20.6901 26.4262C22.6826 26.9601 24.7306 25.7777 25.2645 23.7852C25.7983 21.7928 24.6159 19.7448 22.6235 19.2109Z" fill="#030616"/>
<path d="M35.481 28.5448C34.7291 30.3602 33.6269 32.0097 32.2374 33.3992C30.848 34.7887 29.1984 35.8908 27.383 36.6428C25.5676 37.3948 23.6218 37.7818 21.6568 37.7818C19.6918 37.7818 17.746 37.3948 15.9306 36.6428C14.1152 35.8908 12.4656 34.7887 11.0762 33.3992C9.68671 32.0097 8.58452 30.3602 7.83255 28.5448L0.575195 31.5509C1.72194 34.3193 3.40274 36.8348 5.52164 38.9537C7.64054 41.0726 10.156 42.7534 12.9245 43.9002C15.693 45.0469 18.6602 45.6371 21.6568 45.6371C24.6534 45.6371 27.6206 45.0469 30.3891 43.9002C33.1576 42.7534 35.6731 41.0726 37.792 38.9537C39.9109 36.8348 41.5917 34.3193 42.7384 31.5509L35.481 28.5448Z" fill="#030616"/>
</svg>
